<?xml version="1.0" encoding="UTF-8" standalone="no"?>
<!-- Created with Inkscape (http://www.inkscape.org/) -->

<svg
   width="56.091667mm"
   height="65.087502mm"
   viewBox="0 0 56.091667 65.087502"
   version="1.1"
   id="svg1"
   sodipodi:docname="Logo_of_Advanced_Placement_Chemistry.svg"
   inkscape:version="1.3.2 (091e20e, 2023-11-25)"
   xmlns:inkscape="http://www.inkscape.org/namespaces/inkscape"
   xmlns:sodipodi="http://sodipodi.sourceforge.net/DTD/sodipodi-0.dtd"
   xmlns="http://www.w3.org/2000/svg"
   xmlns:svg="http://www.w3.org/2000/svg">
  <defs
     id="defs1" />
  <sodipodi:namedview
     id="namedview1"
     pagecolor="#ffffff"
     bordercolor="#000000"
     borderopacity="0.25"
     inkscape:showpageshadow="2"
     inkscape:pageopacity="0.0"
     inkscape:pagecheckerboard="0"
     inkscape:deskcolor="#d1d1d1"
     inkscape:document-units="mm"
     inkscape:zoom="1.282034"
     inkscape:cx="52.260704"
     inkscape:cy="173.16233"
     inkscape:window-width="1440"
     inkscape:window-height="752"
     inkscape:window-x="0"
     inkscape:window-y="25"
     inkscape:window-maximized="0"
     inkscape:current-layer="g1" />
  <g
     transform="translate(-75.14167,-88.106247)"
     id="g1">
    <rect
       style="fill:#279e91;fill-opacity:1;stroke-width:0.503074"
       id="rect1"
       width="56.091667"
       height="65.087502"
       x="75.14167"
       y="88.106247" />
    <path
       id="rect3"
       style="fill:#ffffff;fill-opacity:1;fill-rule:evenodd;stroke-width:0.264583"
       d="m 105.23286,97.631247 c -9.242405,0 -16.740067,7.497663 -16.740067,16.740063 0,2.24234 0.449889,4.37763 1.250053,6.33243 l -1.963188,1.572 c -0.350664,-0.42108 -0.878497,-0.68988 -1.46761,-0.68988 -1.052239,0 -1.909961,0.85696 -1.909961,1.90944 0,1.05248 0.857722,1.90996 1.909961,1.90996 1.052445,0 1.909961,-0.85751 1.909961,-1.90996 0,-0.31685 -0.07816,-0.61563 -0.215491,-0.87901 l 1.897558,-1.51878 c 1.562561,3.55536 4.321585,6.46631 7.772136,8.21397 a 0.20379363,0.20379363 0 0 0 0.155029,0.0119 0.20379363,0.20379363 0 0 0 0.118856,-0.1018 0.20379363,0.20379363 0 0 0 -0.08992,-0.27389 c -3.399138,-1.72163 -6.108567,-4.60075 -7.624858,-8.11578 l 1.034046,-0.82786 a 0.2037935,0.2037935 0 0 0 0.03152,-0.28732 0.2037935,0.2037935 0 0 0 -0.136942,-0.0739 0.2037935,0.2037935 0 0 0 -0.150379,0.0429 l -0.939477,0.75241 c -0.751779,-1.87656 -1.173572,-3.92102 -1.173572,-6.06681 0,-1.13256 0.115541,-2.2382 0.334863,-3.30574 0.123907,0.53906 0.608377,0.94413 1.183907,0.94413 0.445892,0 0.837273,-0.24324 1.048515,-0.60358 l 0.82889,0.31109 c -0.03875,0.12815 -0.05943,0.26416 -0.05943,0.40463 0,0.77321 0.631342,1.40404 1.404566,1.40404 0.773224,0 1.404048,-0.63083 1.404048,-1.40404 0,-0.27603 -0.08052,-0.53383 -0.219108,-0.75138 l 2.14974,-1.73168 a 0.2037935,0.2037935 0 0 0 0.03152,-0.28732 0.2037935,0.2037935 0 0 0 -0.13901,-0.0744 v 5.1e-4 a 0.2037935,0.2037935 0 0 0 -0.148311,0.0445 l -2.161109,1.73891 c -0.246498,-0.21365 -0.567407,-0.34365 -0.917773,-0.34365 -0.486979,0 -0.91776,0.25042 -1.169955,0.6289 l -0.860412,-0.32246 c 0.0143,-0.0743 0.02222,-0.15063 0.02222,-0.22893 0,-0.49007 -0.293513,-0.91471 -0.713652,-1.10639 l 0.849561,-2.49545 c 0.03066,0.003 0.06166,0.005 0.09302,0.005 0.563828,0 1.025261,-0.46143 1.025261,-1.02526 0,-0.17373 -0.04432,-0.33784 -0.12144,-0.48163 l 2.300118,-1.81694 c 0.185813,0.18555 0.441817,0.30076 0.72347,0.30076 0.417244,0 0.778314,-0.25298 0.937927,-0.61289 l 1.450041,0.20671 c 0.02151,0.52053 0.374007,0.95891 0.851628,1.10898 l -0.31316,1.67018 c -0.0066,-9e-5 -0.01303,-5.2e-4 -0.01964,-5.2e-4 -0.773223,0 -1.404565,0.63134 -1.404565,1.40457 0,0.77303 0.631342,1.40405 1.404565,1.40405 0.355493,0 0.680748,-0.13367 0.928626,-0.35295 l 1.879994,1.21698 c -0.18673,0.29489 -0.29559,0.64376 -0.29559,1.0175 0,0.76728 0.45626,1.42999 1.11104,1.73323 l -0.88728,2.25826 a 0.2037935,0.2037935 0 0 0 0.11523,0.26355 0.2037935,0.2037935 0 0 0 0.26355,-0.11524 l 0.89659,-2.27531 c 0.1325,0.0292 0.27026,0.045 0.41134,0.045 1.05245,0 1.90945,-0.857 1.90945,-1.90945 0,-1.05222 -0.85697,-1.90996 -1.90945,-1.90996 -0.5315,0 -1.01332,0.21943 -1.36012,0.57155 l -1.869654,-1.20975 c 0.133374,-0.21468 0.210324,-0.46717 0.210324,-0.73742 0,-0.62614 -0.413848,-1.15885 -0.981853,-1.33894 l 0.314709,-1.68103 c 0.649064,-0.0225 1.173054,-0.55958 1.173054,-1.21388 0,-0.21988 -0.0596,-0.42623 -0.16278,-0.60462 l 1.77095,-1.39061 a 0.2037935,0.2037935 0 0 0 0.0331,-0.2868 0.2037935,0.2037935 0 0 0 -0.28526,-0.0351 l -1.77818,1.39836 c -0.213213,-0.18444 -0.490795,-0.29611 -0.793238,-0.29611 -0.545166,0 -1.008538,0.36342 -1.16117,0.8599 l -1.414901,-0.20102 c 5.1e-5,-0.004 0,-0.008 0,-0.0124 0,-0.56383 -0.461433,-1.02578 -1.02526,-1.02578 -0.244829,0 -0.470154,0.0874 -0.646989,0.23203 l -0.542602,-0.37724 c 1.933435,-1.66022 4.258187,-2.875147 6.81922,-3.487644 l 1.38286,0.985986 c -0.20352,0.217468 -0.32866,0.509066 -0.32866,0.828888 0,0.66846 0.54594,1.21492 1.2144,1.21492 0.58688,0 1.07957,-0.42096 1.19114,-0.97617 l 1.76527,0.31109 c -9e-5,0.006 -5.2e-4,0.0127 -5.2e-4,0.0191 0,0.77322 0.63134,1.40405 1.40457,1.40405 0.7734,0 1.40404,-0.63087 1.40404,-1.40405 0,-0.36558 -0.1411,-0.69946 -0.37155,-0.949813 l 0.48318,-0.60048 a 0.2037935,0.2037935 0 0 0 -0.031,-0.286804 0.2037935,0.2037935 0 0 0 -0.14883,-0.04341 0.2037935,0.2037935 0 0 0 -0.13849,0.07441 l -0.48214,0.598929 c -0.20977,-0.124958 -0.45419,-0.197404 -0.7152,-0.197404 -0.62687,0 -1.16039,0.414895 -1.33997,0.983912 l -1.81798,-0.32091 c -0.0845,-0.587496 -0.5927,-1.042307 -1.20251,-1.042307 -0.19523,0 -0.37983,0.04705 -0.54364,0.129708 l -1.19217,-0.851627 c 1.05969,-0.215954 2.15681,-0.329696 3.28042,-0.329696 7.11322,0 13.15926,4.545692 15.40061,10.890292 l -1.96474,1.96628 c -0.19235,-0.0993 -0.41018,-0.15606 -0.64079,-0.15606 -0.77322,0 -1.40456,0.63083 -1.40456,1.40405 0,0.77303 0.63134,1.40456 1.40456,1.40456 0.77323,0 1.40457,-0.63153 1.40457,-1.40456 0,-0.39449 -0.16481,-0.75162 -0.4284,-1.00717 l 1.7756,-1.77561 c 0.50839,1.57916 0.786,3.26207 0.786,5.01055 0,0.26752 -0.0111,0.53251 -0.0238,0.79685 l -1.61799,-1.41645 a 0.2037935,0.2037935 0 0 0 -0.28732,0.0196 0.2037935,0.2037935 0 0 0 0.0176,0.28732 l 1.85312,1.62212 c -0.1703,2.14452 -0.74828,4.17337 -1.66709,6.00429 a 0.20379363,0.20379363 0 0 0 0.0909,0.27388 0.20379363,0.20379363 0 0 0 0.27337,-0.091 c 1.1318,-2.25533 1.76837,-4.80249 1.76837,-7.4967 0,-9.2424 -7.49766,-16.740059 -16.74006,-16.740059 z m -1.54461,1.867069 c 0.44815,0 0.8077,0.358821 0.8077,0.807184 0,0.44809 -0.35961,0.80771 -0.8077,0.80771 -0.44809,0 -0.80719,-0.35962 -0.80719,-0.80771 0,-0.448363 0.35904,-0.807184 0.80719,-0.807184 z m 4.36046,0.379306 c 0.5532,0 0.99683,0.443848 0.99683,0.996838 0,0.55299 -0.44363,0.99632 -0.99683,0.99632 -0.55295,0 -0.99736,-0.44338 -0.99736,-0.99632 0,-0.55294 0.44441,-0.996838 0.99736,-0.996838 z m -13.765573,2.375568 0.600997,0.41754 c -0.0761,0.14306 -0.119372,0.30604 -0.119372,0.47853 0,0.1357 0.02699,0.26511 0.07545,0.38395 l -2.333707,1.84278 c -0.176363,-0.1431 -0.400501,-0.22944 -0.643889,-0.22944 -0.03809,0 -0.07561,0.003 -0.112654,0.007 0.728742,-1.06398 1.579461,-2.03782 2.533178,-2.90008 z m 1.506885,0.27802 c 0.343575,0 0.617533,0.27447 0.617533,0.61805 0,0.34357 -0.273958,0.61753 -0.617533,0.61753 -0.343575,0 -0.617533,-0.27396 -0.617533,-0.61753 0,-0.34358 0.273958,-0.61805 0.617533,-0.61805 z m 3.601331,0.3793 c 0.44809,0 0.807707,0.3591 0.807707,0.80719 0,0.44809 -0.359617,0.8077 -0.807707,0.8077 -0.448369,0 -0.806669,-0.35956 -0.806669,-0.8077 0,-0.44815 0.3583,-0.80719 0.806669,-0.80719 z m 12.071617,1.35857 c -0.46389,0 -0.8444,0.38051 -0.8444,0.8444 0,0.46389 0.38051,0.84439 0.8444,0.84439 0.46372,0 0.84439,-0.38041 0.84439,-0.84439 0,-0.46398 -0.38067,-0.8444 -0.84439,-0.8444 z m 0,0.40773 c 0.24337,0 0.43666,0.19308 0.43666,0.43667 0,0.24359 -0.19329,0.43666 -0.43666,0.43666 -0.24368,0 -0.43667,-0.19298 -0.43667,-0.43666 0,-0.24368 0.19299,-0.43667 0.43667,-0.43667 z m -19.600357,0.87747 c 0.343576,0 0.617534,0.27447 0.617534,0.61805 0,0.34357 -0.273958,0.61753 -0.617534,0.61753 -0.343574,0 -0.61805,-0.27396 -0.61805,-0.61753 0,-0.34358 0.274476,-0.61805 0.61805,-0.61805 z m 18.028357,0.57826 c -0.62483,0 -1.13533,0.51075 -1.13533,1.13533 0,0.0901 0.0105,0.1777 0.0305,0.262 h -1.57407 c -0.49545,0 -0.90227,0.4069 -0.90227,0.90227 0,0.49537 0.40682,0.90279 0.90227,0.90279 h 0.37879 v 4.00182 c 0,0.41072 -0.11328,0.8128 -0.32814,1.16272 l -7.736999,12.60491 c -1.07053,1.7442 0.196085,4.00699 2.242239,4.00699 h 10.91768 6.65283 c 2.04636,0 3.31276,-2.26279 2.24224,-4.00699 l -7.737,-12.60491 c -0.21483,-0.34987 -0.32866,-0.75192 -0.32866,-1.16272 v -4.00182 h 0.37879 c 0.49545,0 0.90227,-0.40734 0.90227,-0.90279 0,-0.49546 -0.40682,-0.90227 -0.90227,-0.90227 h -2.89853 c 0.0199,-0.0842 0.031,-0.17182 0.031,-0.262 0,-0.62465 -0.51069,-1.13533 -1.13533,-1.13533 z m -18.988505,0.39842 c 0.08783,0.23306 0.258375,0.42628 0.475423,0.54364 l -0.853694,2.50992 c -0.03454,-0.003 -0.06962,-0.005 -0.104904,-0.005 -0.370201,0 -0.702778,0.16746 -0.926041,0.43047 0.338035,-1.2231 0.811826,-2.38954 1.409216,-3.47938 z m 18.988505,0.009 c 0.40434,0 0.7276,0.32378 0.7276,0.72812 0,0.0929 -0.0177,0.18071 -0.0491,0.262 h -1.35754 c -0.0314,-0.0811 -0.0491,-0.16883 -0.0491,-0.262 0,-0.4044 0.3235,-0.72812 0.72812,-0.72812 z m -11.194149,0.41496 c 0.552944,0 0.996839,0.44389 0.996839,0.99684 0,0.55267 -0.443894,0.99632 -0.996839,0.99632 -0.552943,0 -0.997355,-0.44365 -0.997355,-0.99632 0,-0.55295 0.444413,-0.99684 0.997355,-0.99684 z m 8.515239,0.98237 h 3.49385 3.18792 c 0.27313,0 0.49454,0.22192 0.49454,0.49506 0,0.27313 -0.22141,0.49506 -0.49454,0.49506 h -0.41341 -0.16899 a 0.20381401,0.20381401 0 0 0 -0.2036,0.2036 v 4.20595 c 0,0.48575 0.13399,0.96166 0.38809,1.37562 l 7.73699,12.60544 c 0.91477,1.4904 -0.14586,3.38635 -1.89445,3.38635 h -6.65283 -10.91768 c -1.74835,0 -2.809734,-1.89596 -1.894973,-3.38635 l 7.736483,-12.60492 v -5.2e-4 c 0.25407,-0.41391 0.38912,-0.8898 0.38912,-1.37562 v -4.20595 a 0.20381401,0.20381401 0 0 0 -0.20361,-0.2036 h -0.16898 -0.41393 c -0.27313,0 -0.49454,-0.22184 -0.49454,-0.49506 0,-0.27322 0.22141,-0.49506 0.49454,-0.49506 z m -4.09174,1.79782 c 0.8322,0 1.50172,0.67027 1.50172,1.50223 0,0.83224 -0.66948,1.50224 -1.50172,1.50224 -0.83197,0 -1.50275,-0.67004 -1.50275,-1.50224 0,-0.83192 0.67082,-1.50223 1.50275,-1.50223 z m -12.70103,0.25218 c 0.448091,0 0.807186,0.35957 0.807186,0.8077 0,0.44815 -0.359095,0.80719 -0.807186,0.80719 -0.448368,0 -0.807185,-0.35909 -0.807185,-0.80719 0,-0.44808 0.358817,-0.8077 0.807185,-0.8077 z m 3.222543,1.13792 c 0.552943,0 0.996838,0.44389 0.996838,0.99684 0,0.55293 -0.443895,0.99632 -0.996838,0.99632 -0.552944,0 -0.997355,-0.44339 -0.997355,-0.99632 0,-0.55295 0.444411,-0.99684 0.997355,-0.99684 z m 24.386107,0.0222 c 0.55295,0 0.99684,0.44338 0.99684,0.99632 0,0.55267 -0.44389,0.99684 -0.99684,0.99684 -0.55294,0 -0.99684,-0.44417 -0.99684,-0.99684 0,-0.55294 0.4439,-0.99632 0.99684,-0.99632 z m -24.313243,2.78846 a 0.2037935,0.2037935 0 0 0 -0.214458,0.1912 l -0.114721,2.02985 c -0.991924,0.0672 -1.780253,0.89607 -1.780253,1.90479 0,1.05228 0.858239,1.90945 1.910477,1.90945 1.052445,0 1.909444,-0.85721 1.909444,-1.90945 0,-0.95823 -0.71087,-1.75439 -1.632458,-1.88929 l 0.115238,-2.02209 a 0.2037935,0.2037935 0 0 0 -0.193269,-0.21446 z m 6.877613,1.96319 c -1.398052,0 -2.536083,1.13481 -2.541444,2.53162 l -1.906344,0.046 a 0.2037935,0.2037935 0 0 0 -0.198954,0.20929 0.2037935,0.2037935 0 0 0 0.208773,0.19895 l 1.927531,-0.0465 c 0.191643,1.21301 1.24444,2.14354 2.510438,2.14354 1.40137,0 2.54197,-1.14008 2.54197,-2.54145 0,-1.40136 -1.1406,-2.54144 -2.54197,-2.54144 z m 0,0.40772 c 1.18111,0 2.13424,0.95262 2.13424,2.13372 0,1.1811 -0.95313,2.13424 -2.13424,2.13424 -1.181095,0 -2.134234,-0.95314 -2.134234,-2.13424 0,-1.1811 0.953139,-2.13372 2.134234,-2.13372 z m -7.076568,0.2527 c 0.832232,0 1.501717,0.67001 1.501717,1.50223 0,0.83198 -0.669485,1.50172 -1.501717,1.50172 -0.83197,0 -1.50275,-0.66978 -1.50275,-1.50172 0,-0.83218 0.67078,-1.50223 1.50275,-1.50223 z m 16.957618,0.17053 c -0.36752,0 -0.66972,0.30194 -0.66972,0.66921 0,0.36727 0.3022,0.66973 0.66972,0.66973 0.3674,0 0.66921,-0.30233 0.66921,-0.66973 0,-0.36739 -0.30181,-0.66921 -0.66921,-0.66921 z m 0,0.40721 c 0.14687,0 0.262,0.11514 0.262,0.262 0,0.14687 -0.11513,0.262 -0.262,0.262 -0.14719,0 -0.262,-0.11501 -0.262,-0.262 0,-0.14698 0.11481,-0.262 0.262,-0.262 z m 1.572,1.92185 c -0.46398,0 -0.84439,0.38015 -0.84439,0.84388 0,0.46372 0.38041,0.84439 0.84439,0.84439 0.46382,0 0.84439,-0.38058 0.84439,-0.84439 0,-0.46382 -0.38057,-0.84388 -0.84439,-0.84388 z m 0,0.40721 c 0.24329,0 0.43667,0.19338 0.43667,0.43667 0,0.24328 -0.19338,0.43666 -0.43667,0.43666 -0.24359,0 -0.43667,-0.19329 -0.43667,-0.43666 0,-0.24338 0.19308,-0.43667 0.43667,-0.43667 z m -2.96984,0.40773 c -0.62483,0 -1.13534,0.51075 -1.13534,1.13533 0,0.62458 0.51051,1.13533 1.13534,1.13533 0.62464,0 1.13584,-0.51069 1.13584,-1.13533 0,-0.62465 -0.5112,-1.13533 -1.13584,-1.13533 z m 0,0.40772 c 0.40433,0 0.72812,0.32327 0.72812,0.72761 0,0.40433 -0.32379,0.72812 -0.72812,0.72812 -0.40462,0 -0.72761,-0.32372 -0.72761,-0.72812 0,-0.4044 0.32299,-0.72761 0.72761,-0.72761 z m -22.763472,1.71204 c 0.832231,0 1.502233,0.66949 1.502233,1.50172 0,0.83223 -0.670002,1.50224 -1.502233,1.50224 -0.831972,0 -1.502234,-0.67004 -1.502234,-1.50224 0,-0.8322 0.670262,-1.50172 1.502234,-1.50172 z m 19.152832,1.37356 a 0.2037935,0.2037935 0 0 0 -0.20308,0.20309 0.2037935,0.2037935 0 0 0 0.20308,0.20516 h 10.59781 a 0.2037935,0.2037935 0 0 0 0.20464,-0.20516 0.2037935,0.2037935 0 0 0 -0.20464,-0.20309 z m 0,2.21279 a 0.2037935,0.2037935 0 0 0 -0.20308,0.20309 0.2037935,0.2037935 0 0 0 0.20308,0.20515 h 5.70715 a 0.2037935,0.2037935 0 0 0 0.20309,-0.20515 0.2037935,0.2037935 0 0 0 -0.20309,-0.20309 z m 4.31033,1.63091 a 0.2037935,0.2037935 0 0 0 -0.20515,0.20309 0.2037935,0.2037935 0 0 0 0.20515,0.20308 h 5.58829 a 0.2037935,0.2037935 0 0 0 0.20464,-0.20308 0.2037935,0.2037935 0 0 0 -0.20464,-0.20309 z" />
    <path
       style="font-weight:bold;font-size:7.14067px;line-height:1em;font-family:Roboto;-inkscape-font-specification:'Roboto Bold';text-align:center;letter-spacing:0.00820208px;text-anchor:middle;fill:#ffffff;stroke-width:0.198437"
       d="m 83.584,137.83598 -1.380715,4.20839 h -1.112243 l 1.88628,-5.07657 h 0.707791 z m 1.14711,4.20839 -1.384202,-4.20839 -0.111573,-0.86818 h 0.714764 l 1.89674,5.07657 z m -0.06276,-1.88976 v 0.81936 h -2.681238 v -0.81936 z m 3.634323,0.0802 h -1.293549 v -0.81588 h 1.293549 q 0.299853,0 0.488132,-0.0976 0.188279,-0.10111 0.275446,-0.27893 0.08717,-0.17782 0.08717,-0.40096 0,-0.22664 -0.08717,-0.42189 -0.08717,-0.19525 -0.275446,-0.3138 -0.188279,-0.11854 -0.488132,-0.11854 h -0.930937 v 4.2572 H 86.32574 v -5.07657 h 1.976933 q 0.596218,0 1.02159,0.21618 0.428859,0.21268 0.655491,0.58924 0.226633,0.37656 0.226633,0.8612 0,0.49162 -0.226633,0.85075 -0.226632,0.35912 -0.655491,0.55438 -0.425372,0.19525 -1.02159,0.19525 z m 7.3593,0.12552 h 1.04251 q -0.03138,0.51254 -0.282419,0.91002 -0.247552,0.39747 -0.693844,0.62062 -0.442805,0.22315 -1.066917,0.22315 -0.488131,0 -0.87515,-0.16736 -0.387019,-0.17085 -0.662465,-0.48814 -0.271959,-0.31728 -0.414912,-0.76706 -0.142952,-0.44978 -0.142952,-1.00764 v -0.35216 q 0,-0.55786 0.146439,-1.00764 0.149926,-0.45326 0.425372,-0.77055 0.278932,-0.31728 0.665951,-0.48813 0.387019,-0.17085 0.864691,-0.17085 0.634571,0 1.070403,0.23012 0.439318,0.23012 0.679897,0.63457 0.244066,0.40446 0.29288,0.92048 H 95.66546 q -0.01743,-0.30683 -0.122033,-0.51951 -0.1046,-0.21617 -0.317286,-0.32426 -0.209199,-0.11157 -0.557864,-0.11157 -0.2615,0 -0.456752,0.0976 -0.195253,0.0976 -0.327746,0.29637 -0.132493,0.19874 -0.198739,0.50208 -0.06276,0.29985 -0.06276,0.7043 v 0.35913 q 0,0.39399 0.05927,0.69384 0.05927,0.29637 0.181306,0.50208 0.12552,0.20223 0.320773,0.30683 0.198739,0.10111 0.477671,0.10111 0.327746,0 0.540432,-0.1046 0.212686,-0.1046 0.324259,-0.31031 0.115059,-0.20572 0.135979,-0.51254 z m 2.654574,-3.67145 v 5.3555 h -1.004156 v -5.3555 z m -0.142952,3.33673 h -0.275446 q 0.0035,-0.39399 0.104599,-0.72523 0.101113,-0.33471 0.289393,-0.57878 0.188279,-0.24755 0.449778,-0.38353 0.264986,-0.13598 0.585758,-0.13598 0.278933,0 0.505565,0.0802 0.230118,0.0767 0.393988,0.25104 0.16736,0.17085 0.25802,0.44978 0.0907,0.27893 0.0907,0.67641 v 2.38487 h -1.01113 v -2.39184 q 0,-0.25104 -0.07322,-0.39399 -0.06973,-0.14644 -0.205712,-0.20572 -0.132493,-0.0628 -0.327746,-0.0628 -0.216173,0 -0.369585,0.0802 -0.149927,0.0802 -0.24058,0.22314 -0.09065,0.13947 -0.132493,0.32775 -0.04184,0.18828 -0.04184,0.40445 z m 4.906955,2.08851 q -0.43932,0 -0.78799,-0.13947 -0.34866,-0.14295 -0.59273,-0.39399 -0.24058,-0.25104 -0.36958,-0.58227 -0.12901,-0.33472 -0.12901,-0.71128 v -0.13947 q 0,-0.42886 0.12203,-0.7845 0.12204,-0.35563 0.34867,-0.61713 0.23012,-0.2615 0.55786,-0.40097 0.32775,-0.14295 0.73917,-0.14295 0.40097,0 0.71128,0.13249 0.31031,0.13249 0.51951,0.37656 0.21269,0.24407 0.32078,0.58576 0.10808,0.3382 0.10808,0.75312 v 0.41839 h -2.99852 v -0.66943 h 2.0118 v -0.0767 q 0,-0.2092 -0.0767,-0.37307 -0.0732,-0.16736 -0.22314,-0.26499 -0.14993,-0.0976 -0.38354,-0.0976 -0.19873,0 -0.34169,0.0872 -0.14295,0.0872 -0.2336,0.24407 -0.0872,0.1569 -0.1325,0.36958 -0.0418,0.2092 -0.0418,0.46024 v 0.13947 q 0,0.22663 0.0628,0.4184 0.0662,0.19176 0.1848,0.33123 0.12203,0.13947 0.29288,0.21617 0.17433,0.0767 0.39399,0.0767 0.27196,0 0.50556,-0.1046 0.23709,-0.10809 0.40794,-0.32426 l 0.48813,0.52997 q -0.11854,0.17085 -0.32426,0.32775 -0.20222,0.1569 -0.48813,0.25801 -0.2859,0.0976 -0.652,0.0976 z m 3.13224,-3.06129 v 2.99155 h -1.00764 v -3.77256 h 0.94488 z m -0.13946,0.97278 h -0.27894 q 0,-0.39399 0.0941,-0.72523 0.0976,-0.33471 0.28242,-0.57878 0.18828,-0.24755 0.46373,-0.38353 0.27544,-0.13598 0.63806,-0.13598 0.25103,0 0.46023,0.0767 0.2092,0.0732 0.35913,0.23361 0.15341,0.1569 0.23709,0.41143 0.0837,0.25104 0.0837,0.60319 v 2.51736 h -1.00415 v -2.40579 q 0,-0.25801 -0.0697,-0.39748 -0.0697,-0.13946 -0.19874,-0.19525 -0.12552,-0.0558 -0.30334,-0.0558 -0.19525,0 -0.34169,0.0802 -0.14295,0.0802 -0.23709,0.22314 -0.0941,0.13947 -0.13947,0.32775 -0.0453,0.18828 -0.0453,0.40445 z m 2.2454,-0.11506 -0.35912,0.0453 q 0,-0.36959 0.0906,-0.68687 0.0941,-0.31729 0.27545,-0.55787 0.18479,-0.24058 0.45675,-0.37307 0.27196,-0.13598 0.6276,-0.13598 0.27195,0 0.4951,0.0802 0.22315,0.0767 0.38005,0.24755 0.16038,0.16736 0.24406,0.43932 0.0872,0.27196 0.0872,0.66595 v 2.40928 h -1.00765 v -2.40928 q 0,-0.2615 -0.0697,-0.39747 -0.0662,-0.13947 -0.19525,-0.19177 -0.12552,-0.0558 -0.29985,-0.0558 -0.18131,0 -0.31729,0.0732 -0.13598,0.0697 -0.22663,0.19526 -0.0906,0.12551 -0.13598,0.29287 -0.0453,0.16388 -0.0453,0.35913 z m 4.14338,-1.63873 v 3.77256 h -1.00765 v -3.77256 z m -1.07041,-0.98324 q 0,-0.21965 0.15342,-0.36261 0.15341,-0.14295 0.41142,-0.14295 0.25453,0 0.40794,0.14295 0.1569,0.14296 0.1569,0.36261 0,0.21966 -0.1569,0.36262 -0.15341,0.14295 -0.40794,0.14295 -0.25801,0 -0.41142,-0.14295 -0.15342,-0.14296 -0.15342,-0.36262 z m 3.94813,3.71329 q 0,-0.10808 -0.0628,-0.19525 -0.0628,-0.0872 -0.23361,-0.16039 -0.16736,-0.0767 -0.48464,-0.13946 -0.28591,-0.0628 -0.53346,-0.1569 -0.24407,-0.0976 -0.42537,-0.23361 -0.17782,-0.13598 -0.27894,-0.32077 -0.10111,-0.18828 -0.10111,-0.42886 0,-0.23709 0.10111,-0.44629 0.1046,-0.2092 0.29637,-0.36959 0.19525,-0.16387 0.47418,-0.25452 0.28242,-0.0941 0.63458,-0.0941 0.49161,0 0.84377,0.1569 0.35563,0.1569 0.54391,0.43234 0.19177,0.27196 0.19177,0.62063 h -1.00416 q 0,-0.14644 -0.0628,-0.2615 -0.0593,-0.11855 -0.18828,-0.18479 -0.12552,-0.0697 -0.32774,-0.0697 -0.16736,0 -0.28939,0.0593 -0.12204,0.0558 -0.18828,0.15341 -0.0628,0.0941 -0.0628,0.2092 0,0.0872 0.0349,0.1569 0.0384,0.0662 0.12204,0.12203 0.0837,0.0558 0.21617,0.1046 0.13598,0.0453 0.33472,0.0837 0.40794,0.0837 0.72871,0.21966 0.32077,0.13249 0.50905,0.36261 0.18828,0.22663 0.18828,0.59622 0,0.25104 -0.11157,0.46024 -0.11158,0.2092 -0.32078,0.3661 -0.20919,0.15341 -0.50207,0.24058 -0.2894,0.0837 -0.65201,0.0837 -0.52648,0 -0.89258,-0.18828 -0.36261,-0.18828 -0.55089,-0.47768 -0.1848,-0.29287 -0.1848,-0.5997 h 0.95186 q 0.007,0.20571 0.1046,0.33123 0.10111,0.12552 0.25453,0.18131 0.1569,0.0558 0.3382,0.0558 0.19525,0 0.32426,-0.0523 0.12901,-0.0558 0.19525,-0.14643 0.0697,-0.0941 0.0697,-0.21618 z m 3.4844,-2.73005 v 0.71128 h -2.1966 v -0.71128 z m -1.65268,-0.93094 h 1.00416 v 3.56685 q 0,0.16388 0.0418,0.25104 0.0453,0.0872 0.13249,0.12204 0.0872,0.0314 0.21966,0.0314 0.0941,0 0.16736,-0.007 0.0767,-0.0105 0.12901,-0.0209 l 0.003,0.73917 q -0.129,0.0418 -0.27893,0.0662 -0.14993,0.0244 -0.33123,0.0244 -0.33124,0 -0.57879,-0.10809 -0.24406,-0.11157 -0.37656,-0.35564 -0.13249,-0.24407 -0.13249,-0.64154 z m 3.23336,1.75379 v 2.94971 h -1.00416 v -3.77256 h 0.94489 z m 1.13665,-0.84725 -0.0174,0.93093 q -0.0732,-0.0105 -0.17781,-0.0174 -0.10112,-0.0105 -0.1848,-0.0105 -0.21268,0 -0.36958,0.0558 -0.15342,0.0523 -0.25802,0.15689 -0.10111,0.1046 -0.15341,0.25453 -0.0488,0.14993 -0.0558,0.34169 l -0.20223,-0.0628 q 0,-0.3661 0.0732,-0.67292 0.0732,-0.31031 0.21268,-0.54043 0.14296,-0.23012 0.34867,-0.35564 0.20571,-0.12552 0.4707,-0.12552 0.0837,0 0.17085,0.0139 0.0872,0.0105 0.14295,0.0314 z m 1.66436,3.37159 1.00067,-3.34719 h 1.07738 l -1.5167,4.34089 q -0.0488,0.14295 -0.13249,0.30682 -0.0802,0.16388 -0.21966,0.31032 -0.13598,0.14992 -0.34518,0.24406 -0.20571,0.0941 -0.50557,0.0941 -0.14295,0 -0.2336,-0.0174 -0.0906,-0.0174 -0.21617,-0.0488 v -0.73568 q 0.0384,0 0.0802,0 0.0418,0.003 0.0802,0.003 0.19874,0 0.32426,-0.0453 0.12552,-0.0453 0.20223,-0.13947 0.0767,-0.0907 0.12203,-0.23709 z m -0.4184,-3.34719 0.81936,2.73354 0.14296,1.06343 -0.68339,0.0732 -1.35631,-3.87019 z"
       id="text1" />
  </g>
</svg>
